# xmcd
#
# Track frame offsets: 
#        225
#        12947
#        20947
#        31507
#        42777
#        48607
#        58622
#        68812
#        77917
#        89095
#        97287
#        106550
#        116482
#        127190
#        137380
#        146790
#
# Disc length: 2112 seconds
#
# Revision: 0
# Processed by: cddbd v1.5.1PL0 Copyright (c) Steve Scherf et al.
# Submitted via: ExactAudioCopy v0.90b4
#
DISCID=e1083d10
DTITLE=Johnny Cash - Greatest Hits
DYEAR=1900
DGENRE=Country
TTITLE0=Folsom Prison Blues
TTITLE1=I Can't Help It
TTITLE2=You Win Again
TTITLE3=Mean Eyed Cat
TTITLE4=My Treasure
TTITLE5=Hey Porter
TTITLE6=Straight as in Love
TTITLE7=Two Timin' Woman
TTITLE8=Oh, Lonesome Me
TTITLE9=Sugartime
TTITLE10=Blues Time
TTITLE11=Rock Island Line
TTITLE12=Train of Love
TTITLE13=Get Rhythm
TTITLE14=Luther's Boogie
TTITLE15=You Are the Nearest Thing to Heaven
EXTD=
EXTT0=
EXTT1=
EXTT2=
EXTT3=
EXTT4=
EXTT5=
EXTT6=
EXTT7=
EXTT8=
EXTT9=
EXTT10=
EXTT11=
EXTT12=
EXTT13=
EXTT14=
EXTT15=
PLAYORDER=
